<?xml version="1.0" encoding="UTF-8" standalone="no"?>
<svg width="42px" height="44px" viewBox="0 0 42 44" version="1.1" xmlns="http://www.w3.org/2000/svg" xmlns:xlink="http://www.w3.org/1999/xlink">
    <!-- Generator: Sketch 40.1 (33804) - http://www.bohemiancoding.com/sketch -->
    <title>Page 1</title>
    <desc>Created with Sketch.</desc>
    <defs></defs>
    <g id="Page-1" stroke="none" stroke-width="1" fill="none" fill-rule="evenodd">
        <g id="Artboard" transform="translate(-22.000000, -18.000000)">
            <g id="Page-1" transform="translate(22.000000, 18.000000)">
                <path d="M1.12845833,20.2534331 C1.12845833,20.2534331 2.87641667,21.9120291 4.77575,21.5731417 C6.67479167,21.2342543 7.57983333,18.9127444 7.57983333,18.9127444 C7.57983333,18.9127444 7.53520833,27.2975126 13.3685417,30.1435258 L13.57125,34.6583338 C13.57125,34.6583338 4.15829167,33.8167974 1.12845833,20.2534331" id="Fill-1" fill="#D84444"></path>
                <path d="M35.6558417,31.5763815 C35.6558417,31.5763815 36.8303833,34.2312424 38.871175,34.3032159 C40.9122583,34.3751894 41.8266333,31.1926199 41.8266333,31.1926199 C41.8266333,31.1926199 42.9571333,42.892249 34.342175,43.7063947 L34.4250083,41.5151364 C34.4250083,41.5151364 36.3176333,39.1618649 35.6558417,31.5763815" id="Fill-3" fill="#D84444"></path>
                <path d="M19.3407958,26.4626781 C19.3407958,26.4626781 18.4200042,3.58238675 24.1865458,4.98630728 C29.9530875,6.39022781 24.5257542,22.8133007 19.3407958,26.4626781 M21.7152542,30.450943 C21.7152542,30.450943 30.0015042,22.463049 32.3759625,12.9258305 C34.7504208,3.38861192 29.3738375,0.00556556291 25.0589208,2.91390729e-05 C20.0871708,-0.00667284768 16.6329625,1.96079735 14.2526708,10.6503603 C11.8782125,19.3192344 13.6713792,43.8126649 13.6713792,43.8126649 L19.7806292,43.8455921 C19.7806292,43.8455921 19.8369208,36.6249298 23.4597125,36.4538834 C27.2892958,36.2732212 27.0445875,39.7567974 29.9265458,42.8717642 C31.4612958,44.5303603 35.7625042,43.4568768 35.7625042,43.4568768 C34.7886292,28.6038172 21.7152542,30.450943 21.7152542,30.450943" id="Fill-5" fill="#FF5D5B"></path>
                <path d="M7.18815417,15.6934596 C7.18815417,17.6766649 5.57902917,19.2842675 3.59394583,19.2842675 C1.60915417,19.2842675 2.91666666e-05,17.6766649 2.91666666e-05,15.6934596 C2.91666666e-05,13.7102543 1.60915417,12.1026517 3.59394583,12.1026517 C5.57902917,12.1026517 7.18815417,13.7102543 7.18815417,15.6934596" id="Fill-7" fill="#D84444"></path>
            </g>
        </g>
    </g>
</svg>