<?xml version="1.0" encoding="UTF-8" standalone="no"?>
<svg width="64px" height="67px" viewBox="0 0 64 67" version="1.1" xmlns="http://www.w3.org/2000/svg" xmlns:xlink="http://www.w3.org/1999/xlink">
    <!-- Generator: Sketch 40.1 (33804) - http://www.bohemiancoding.com/sketch -->
    <title>Page 1</title>
    <desc>Created with Sketch.</desc>
    <defs></defs>
    <g id="Page-1" stroke="none" stroke-width="1" fill="none" fill-rule="evenodd">
        <g id="Artboard" transform="translate(-14.000000, -9.000000)">
            <g id="Page-1" transform="translate(14.000000, 9.000000)">
                <path d="M1.71955556,30.840455 C1.71955556,30.840455 4.38311111,33.3660444 7.27733333,32.8500113 C10.1711111,32.3339781 11.5502222,28.7989517 11.5502222,28.7989517 C11.5502222,28.7989517 11.4822222,41.5666669 20.3711111,45.9003689 L20.68,52.7751901 C20.68,52.7751901 6.33644444,51.4937596 1.71955556,30.840455" id="Fill-1" fill="#D84444"></path>
                <path d="M54.3327111,48.0822172 C54.3327111,48.0822172 56.1224889,52.1248464 59.2322667,52.2344424 C62.3424889,52.3440384 63.7358222,47.497853 63.7358222,47.497853 C63.7358222,47.497853 65.4584889,65.3131974 52.3309333,66.5529192 L52.4571556,63.2162305 C52.4571556,63.2162305 55.3411556,59.6328397 54.3327111,48.0822172" id="Fill-3" fill="#D84444"></path>
                <path d="M29.4716889,40.2954417 C29.4716889,40.2954417 28.0685778,5.45499801 36.8556889,7.59278609 C45.6428,9.73057417 37.3725778,34.7384351 29.4716889,40.2954417 M33.0899111,46.3684815 C33.0899111,46.3684815 45.7165778,34.2050974 49.3348,19.6825146 C52.9530222,5.15993179 44.7601333,0.00847483444 38.1850222,4.43708609e-05 C30.6090222,-0.0101609272 25.3454667,2.9857596 21.7183556,16.217594 C18.1001333,29.4179252 20.8325778,66.7147397 20.8325778,66.7147397 L30.1419111,66.7648788 C30.1419111,66.7648788 30.2276889,55.7697795 35.7481333,55.5093225 C41.5836889,55.2342232 41.2108,60.5387596 45.6023556,65.2820046 C47.9410222,67.807594 54.4952444,66.1729715 54.4952444,66.1729715 C53.0112444,43.5558126 33.0899111,46.3684815 33.0899111,46.3684815" id="Fill-5" fill="#FF5D5B"></path>
                <path d="M10.9533778,23.8968589 C10.9533778,26.9167397 8.50137778,29.3646801 5.47648889,29.3646801 C2.45204444,29.3646801 4.44444444e-05,26.9167397 4.44444444e-05,23.8968589 C4.44444444e-05,20.8769781 2.45204444,18.4290377 5.47648889,18.4290377 C8.50137778,18.4290377 10.9533778,20.8769781 10.9533778,23.8968589" id="Fill-7" fill="#D84444"></path>
            </g>
        </g>
    </g>
</svg>