<?xml version="1.0" encoding="UTF-8"?>
<svg width="189px" height="197px" viewBox="0 0 189 197" version="1.1" xmlns="http://www.w3.org/2000/svg" xmlns:xlink="http://www.w3.org/1999/xlink">
    <!-- Generator: Sketch 42 (36781) - http://www.bohemiancoding.com/sketch -->
    <title>Page 1</title>
    <desc>Created with Sketch.</desc>
    <defs></defs>
    <g id="Page-1" stroke="none" stroke-width="1" fill="none" fill-rule="evenodd">
        <g id="Artboard" transform="translate(-4.000000, -5.000000)">
            <g id="Page-1" transform="translate(6.000000, 7.000000)">
                <path d="M26.9449748,83.1432149 C26.9449748,83.1432149 22.1751922,104.303803 26.9449748,104.005838 C30.915913,103.757393 37.7799634,90.9076557 39.9673661,86.6112895 C40.144746,86.2629583 40.6692654,86.3852763 40.6773089,86.7763553 C40.7632471,90.9135811 41.2179153,101.919237 43.6390023,101.919237 C46.619746,101.919237 57.3514394,81.6529671 59.736119,81.6529671 C62.121222,81.6529671 58.8420229,102.521939 60.9286705,104.0088" id="Stroke-1" stroke="#000000" stroke-width="4" stroke-linecap="round"></path>
                <path d="M113.990946,102.515378 C112.201907,101.919448 116.375626,83.1430033 113.990946,83.1430033 C111.605843,83.1430033 107.432548,91.786102 102.364733,89.9978893 C97.2969188,88.2096765 95.2102712,77.1824353 102.364733,77.7787884 C109.519196,78.3747182 96.5992529,93.4883958 87.1617128,104.008589 C78.7706716,113.361894 76.051976,119.586144 74.3433719,126.954427 C72.8616785,133.341626 74.9614497,139.657297 78.8146991,140.067845 C86.4369531,140.880054 87.6790355,106.89724 85.5720675,87.5663432 C85.2338181,84.4643761 82.5388295,82.0633037 79.4234634,82.2554572 C78.0018844,82.3434923 76.5705686,82.9643936 75.4775023,84.6302884 C72.1974565,89.6275493 70.7098364,98.2164726 74.3433719,99.6220713 C77.976484,101.027247 85.6406487,91.0132555 84.97304,85.5373037" id="Stroke-3" stroke="#000000" stroke-width="4" stroke-linecap="round"></path>
                <path d="M128.005014,81.6529671 C128.005014,81.6529671 126.286673,101.339814 128.630288,101.808346" id="Stroke-5" stroke="#000000" stroke-width="4" stroke-linecap="round"></path>
                <path d="M151.237923,83.5370873 C151.237923,83.5370873 145.146047,79.1645368 141.24115,83.5370873 C137.336253,87.9096377 136.711825,95.4057408 142.490852,95.7176728 C148.26988,96.0300281 162.015338,67.7644162 157.173587,61.8305127 C152.331413,55.896186 148.649617,98.2491048 156.080097,100.871111 C161.390486,102.745243 162.796402,98.0603373 162.796402,98.0603373" id="Stroke-7" stroke="#000000" stroke-width="4" stroke-linecap="round"></path>
                <path d="M76.7144199,191.623648 C108.743127,198.674073 170.177097,174.105935 180.70347,117.87056 C191.229843,61.6343384 187.640759,7.93420461 93.4876121,0.918062061 C-0.665110984,-6.09765724 0.000381006865,63.260448 0.000381006865,94.3118625 C0.000381006865,125.363277 12.9711247,177.591786 76.7144199,191.623648 Z" id="Stroke-9" stroke="#000000" stroke-width="4" stroke-linecap="round"></path>
                <path d="M67.7411579,153.287287 C67.7411579,153.287287 71.6219245,159.938592 81.9768444,161.917689 C91.9223936,163.818061 98.2729314,156.998305 98.2729314,156.998305" id="Stroke-11" stroke="#000000" stroke-width="4" stroke-linecap="round"></path>
                <path d="M132.198756,74.5681318 C132.198756,76.5383401 130.601068,78.1356691 128.629992,78.1356691 C126.65934,78.1356691 125.061651,76.5383401 125.061651,74.5681318 C125.061651,72.5975002 126.65934,71.0001713 128.629992,71.0001713 C130.601068,71.0001713 132.198756,72.5975002 132.198756,74.5681318" id="Fill-13" fill="#000000"></path>
                <path d="M31.9622426,74.5681318 C31.9622426,76.5383401 30.3645538,78.1356691 28.3939016,78.1356691 C26.4228261,78.1356691 24.8251373,76.5383401 24.8251373,74.5681318 C24.8251373,72.5975002 26.4228261,71.0001713 28.3939016,71.0001713 C30.3645538,71.0001713 31.9622426,72.5975002 31.9622426,74.5681318" id="Fill-15" fill="#000000"></path>
            </g>
        </g>
    </g>
</svg>